<svg width="22" height="26" viewBox="0 0 22 26" fill="none" xmlns="http://www.w3.org/2000/svg">
<path d="M13.1868 1.15576L17.7708 4.97571C18.4104 5.50877 18.4104 6.49124 17.7708 7.0243L13.1868 10.8442C12.3184 11.5679 10.9999 10.9504 10.9999 9.81994V7.33333C6.58164 7.33333 2.99992 10.9151 2.99992 15.3333C2.99992 19.7516 6.58164 23.3333 10.9999 23.3333C14.622 23.3333 17.685 20.9252 18.6688 17.6197C18.8789 16.9139 19.6213 16.512 20.3271 16.7221C21.0329 16.9321 21.4347 17.6745 21.2247 18.3803C19.9137 22.7855 15.8339 26 10.9999 26C5.10888 26 0.333252 21.2244 0.333252 15.3333C0.333252 9.4423 5.10888 4.66667 10.9999 4.66667V2.18005C10.9999 1.0496 12.3184 0.432063 13.1868 1.15576Z" fill="#9FB8C6"/>
</svg>
